<svg width="512" height="512" viewBox="0 0 512 512" fill="none" xmlns="http://www.w3.org/2000/svg">
<g clip-path="url(#clip0_5_40)">
<path d="M256.001 8.32899C119.215 8.32899 8.33 119.215 8.33 256.001C8.33 392.787 119.215 503.671 256 503.671C392.785 503.671 503.671 392.785 503.671 256C503.672 119.215 392.786 8.32899 256.001 8.32899Z" fill="#41CB35"/>
<g opacity="0.1">
<path d="M63.856 256.001C63.856 128.604 160.05 23.69 283.763 9.88699C274.648 8.86999 265.387 8.32899 256 8.32899C119.215 8.32899 8.33 119.215 8.33 256.001C8.33 392.787 119.215 503.671 256 503.671C265.387 503.671 274.648 503.13 283.763 502.113C160.049 488.311 63.856 383.398 63.856 256.001Z" fill="black"/>
</g>
<path d="M386.801 297.462H288.983V354.798L119.403 256.001L288.983 157.202V214.538H386.801V297.462Z" fill="white"/>
<path d="M256 512C187.619 512 123.333 485.371 74.981 437.02C26.63 388.667 0.000999451 324.38 0.000999451 255.999C0.000999451 187.179 26.935 122.595 75.84 74.142C79.107 70.905 84.381 70.929 87.618 74.196C90.855 77.464 90.831 82.737 87.562 85.975C41.84 131.276 16.658 191.658 16.658 255.999C16.658 319.93 41.554 380.034 86.76 425.239C131.966 470.445 192.07 495.341 256 495.341C313.105 495.341 368.403 474.891 411.707 437.758C415.198 434.763 420.457 435.167 423.451 438.659C426.445 442.151 426.042 447.409 422.55 450.404C376.23 490.125 317.081 512 256 512ZM440.906 429.079C438.934 429.079 436.954 428.383 435.366 426.967C431.932 423.905 431.631 418.64 434.692 415.208C473.804 371.342 495.342 314.801 495.342 256.001C495.342 192.07 470.446 131.966 425.24 86.761C380.035 41.554 319.931 16.658 256 16.658C203.542 16.658 153.737 33.32 111.968 64.843C108.297 67.615 103.074 66.884 100.303 63.213C97.531 59.542 98.262 54.319 101.933 51.548C146.617 17.825 199.892 0 256 0C324.381 0 388.667 26.629 437.019 74.98C485.371 123.332 511.999 187.619 511.999 255.999C511.999 318.894 488.959 379.372 447.124 426.293C445.48 428.139 443.198 429.079 440.906 429.079ZM288.983 363.127C287.534 363.127 286.086 362.749 284.791 361.994L115.212 263.195C112.651 261.702 111.075 258.962 111.075 255.999C111.075 253.036 112.65 250.294 115.212 248.803L284.791 150.005C287.367 148.504 290.549 148.496 293.134 149.981C295.719 151.467 297.313 154.221 297.313 157.202V206.209H386.802C391.402 206.209 395.131 209.938 395.131 214.538V297.461C395.131 302.061 391.402 305.79 386.802 305.79H297.313V354.797C297.313 357.779 295.719 360.533 293.134 362.018C291.848 362.759 290.415 363.127 288.983 363.127ZM135.948 255.999L280.654 340.306V297.461C280.654 292.861 284.383 289.132 288.983 289.132H378.472V222.867H288.983C284.383 222.867 280.654 219.138 280.654 214.538V171.693L135.948 255.999Z" fill="black"/>
</g>
<defs>
<clipPath id="clip0_5_40">
<rect width="512" height="512" fill="white"/>
</clipPath>
</defs>
</svg>
