<?xml version="1.0" encoding="iso-8859-1"?>
<!-- Generator: Adobe Illustrator 19.0.0, SVG Export Plug-In . SVG Version: 6.00 Build 0)  -->
<svg version="1.1" id="Layer_1" xmlns="http://www.w3.org/2000/svg" xmlns:xlink="http://www.w3.org/1999/xlink" x="0px" y="0px"
	 viewBox="0 0 511.999 511.999" style="enable-background:new 0 0 511.999 511.999;" xml:space="preserve">
<path style="fill:#ED2601;" d="M147.812,358.682L10.363,475.36c-3.851,3.269-1.539,9.565,3.512,9.565l0,0
	c83.708,0,160.862-45.301,201.652-118.398l8.684-15.564L147.812,358.682z"/>
<path style="fill:#C91C00;" d="M196.359,353.776c-37.416,63.97-103.054,105.77-176.057,113.146l-9.939,8.437
	c-3.851,3.269-1.539,9.565,3.512,9.565l0,0c83.708,0,160.862-45.301,201.652-118.398l8.684-15.564L196.359,353.776z"/>
<path style="fill:#ED2601;" d="M504.402,104.656L443.23,69.242c3.836,7.819,6.377,16.436,7.304,25.608
	c1.081,10.706-0.139,21.112-3.254,30.731C466.066,119.153,504.402,104.656,504.402,104.656z"/>
<path style="fill:#FDEA96;" d="M450.533,94.851c-4.183-41.402-41.137-71.573-82.538-67.39c-37.281,3.767-65.442,34.109-67.628,70.34
	c4.391,7.652,8.332,15.432,11.829,23.297c-0.001,0-0.01-0.003-0.01-0.003c1.435,3.223,2.794,6.458,4.078,9.706
	c0.03,0.077,0.062,0.153,0.092,0.23c0.592,1.503,1.167,3.01,1.728,4.518c0.153,0.41,0.301,0.823,0.45,1.234
	c0.036,0.1,0.073,0.201,0.109,0.301c0.735,2.023,1.444,4.048,2.12,6.077c0.046,0.139,0.091,0.278,0.137,0.416
	c0.792,2.396,1.547,4.795,2.257,7.197c0.016,0.053,0.031,0.108,0.047,0.162c0.748,2.538,1.452,5.078,2.108,7.621
	c0.015,0.014,0.031,0.026,0.047,0.04c9.332,35.809,10.026,73.679-1.986,108.723c-6.064,18.295-15.276,35.474-27.83,50.85
	c-27.143,33.244-65.615,52.97-108.48,59.229c242.956,51.278,238.68-177.245,236.179-216.633
	C442.135,145.297,453.172,120.963,450.533,94.851z"/>
<path style="fill:#E8D37C;" d="M450.533,94.851c-4.183-41.402-41.137-71.573-82.538-67.39c-1.729,0.174-3.43,0.425-5.117,0.712
	c32.537,5.581,58.708,32.232,62.189,66.678c2.638,26.113-8.398,50.446-27.29,65.914c2.196,34.594,5.753,215.083-158.026,223.758
	c189.611,9.494,185.798-187.458,183.494-223.758C442.135,145.297,453.172,120.963,450.533,94.851z"/>
<path style="fill:#FDBF00;" d="M80.304,366.883c81.534,27.088,166.584,10.878,215.241-48.715s47.526-146.166,4.676-220.635
	L80.304,366.883z"/>
<path style="fill:#EFB000;" d="M300.22,97.535l-5.859,7.177c29.311,67.896,25.242,141.741-17.808,194.468
	s-114.588,71.484-186.975,56.347l-9.274,11.359c81.534,27.088,166.584,10.878,215.24-48.715
	C344.201,258.575,343.069,172.002,300.22,97.535z"/>
<g>
	<circle style="fill:#333333;" cx="401.536" cy="80.378" r="10.233"/>
	<circle style="fill:#333333;" cx="401.483" cy="80.378" r="10.233"/>
</g>
<path d="M508.002,97.72l-59.175-34.257c-15.419-29.063-47.36-47.484-82.052-43.976c-19.81,2.001-38.269,11.038-51.976,25.446
	c-12.822,13.477-20.765,30.854-22.585,49.228L73.68,361.815c-1.667,2.042-2.224,4.772-1.489,7.304
	c0.735,2.531,2.668,4.539,5.17,5.371c9.842,3.27,19.729,5.933,29.623,7.985l-20.708,17.58c-3.375,2.865-3.788,7.922-0.923,11.296
	c2.865,3.375,7.922,3.789,11.296,0.923l31.102-26.402c3.414,0.411,6.825,0.748,10.232,1.013c1.094,0.087,2.186,0.169,3.277,0.24
	c0.22,0.014,0.44,0.026,0.66,0.038c13.912,0.868,27.542,0.494,40.816-1.127c0.98-0.118,1.953-0.248,2.928-0.379
	c0.285-0.038,0.572-0.076,0.857-0.115c2,0.415,3.99,0.812,5.969,1.19c-40.285,54.203-103.894,87.836-171.844,90.06l56.005-47.542
	c3.375-2.865,3.788-7.922,0.923-11.296c-2.864-3.375-7.92-3.787-11.296-0.923L4.762,469.25c-4.345,3.689-5.885,9.529-3.92,14.881
	c1.965,5.35,6.918,8.808,12.619,8.808c41.391,0,82.28-10.828,118.243-31.314c31.215-17.78,58.057-42.465,78.405-71.939
	c14.742,2.101,28.824,3.165,42.211,3.165c6.95,0,13.712-0.289,20.291-0.855v42.519l-28.405,20.223
	c-3.606,2.567-4.447,7.571-1.881,11.177c2.566,3.604,7.572,4.448,11.176,1.881l24.778-17.64l11.07,18.062
	c1.512,2.467,4.145,3.828,6.84,3.828c1.429,0,2.873-0.382,4.18-1.182c3.774-2.313,4.958-7.247,2.646-11.021l-4.552-7.427
	l19.113,5.781l12.394,17.979c1.555,2.255,4.058,3.466,6.606,3.466c1.569,0,3.152-0.459,4.541-1.417
	c3.644-2.512,4.563-7.502,2.05-11.147l-13.986-20.289c-1.031-1.495-2.539-2.597-4.279-3.122l-26.1-7.895l23.333-16.612l11.07,18.062
	c1.512,2.467,4.145,3.828,6.84,3.828c1.429,0,2.873-0.381,4.18-1.182c3.774-2.313,4.958-7.247,2.646-11.021l-4.552-7.427
	l19.113,5.781l12.394,17.979c1.555,2.255,4.058,3.466,6.606,3.466c1.569,0,3.152-0.46,4.541-1.417
	c3.644-2.512,4.563-7.502,2.05-11.147l-13.986-20.289c-1.031-1.495-2.539-2.597-4.279-3.122l-36.265-10.969v-24.95
	c9.021-4.188,17.481-9.191,25.366-15.009c51.666-38.119,67.716-102.874,72.085-150.485c0.404-4.408-2.841-8.308-7.248-8.713
	c-4.419-0.407-8.308,2.841-8.713,7.249c-4.068,44.343-18.758,104.462-65.639,139.052c-30.57,22.555-71.268,31.499-121.332,26.731
	c9.183-3.35,17.972-7.378,26.313-12.066c0.067-0.037,0.134-0.076,0.2-0.114c1.482-0.836,2.95-1.693,4.405-2.57
	c0.3-0.181,0.598-0.362,0.897-0.545c1.226-0.75,2.441-1.515,3.645-2.294c0.4-0.259,0.8-0.515,1.197-0.776
	c1.119-0.737,2.225-1.491,3.324-2.253c0.42-0.291,0.845-0.577,1.262-0.872c1.172-0.829,2.331-1.678,3.481-2.536
	c0.306-0.228,0.619-0.448,0.923-0.679c1.401-1.06,2.784-2.142,4.15-3.245c0.513-0.415,1.014-0.844,1.523-1.264
	c0.86-0.712,1.72-1.423,2.567-2.152c0.597-0.515,1.185-1.042,1.775-1.564c0.746-0.661,1.491-1.325,2.225-1.999
	c0.599-0.551,1.193-1.109,1.785-1.669c0.718-0.68,1.432-1.366,2.139-2.059c0.572-0.561,1.141-1.124,1.705-1.694
	c0.727-0.734,1.445-1.478,2.16-2.226c0.521-0.546,1.044-1.089,1.558-1.642c0.788-0.847,1.56-1.71,2.332-2.575
	c0.423-0.474,0.853-0.941,1.271-1.422c1.147-1.315,2.276-2.649,3.384-4.004c0.033-0.04,0.067-0.078,0.099-0.118
	c0.129-0.158,0.253-0.32,0.381-0.479c0.655-0.809,1.306-1.62,1.945-2.438c0.253-0.324,0.497-0.654,0.747-0.979
	c0.513-0.667,1.026-1.334,1.527-2.008c0.246-0.331,0.485-0.667,0.729-0.999c0.498-0.68,0.997-1.36,1.484-2.046
	c0.22-0.31,0.434-0.625,0.652-0.937c0.505-0.722,1.009-1.446,1.502-2.176c0.185-0.275,0.365-0.552,0.549-0.828
	c0.518-0.777,1.033-1.557,1.539-2.342c0.153-0.237,0.301-0.478,0.453-0.716c0.531-0.836,1.058-1.674,1.573-2.52
	c0.116-0.191,0.231-0.384,0.346-0.575c0.547-0.904,1.087-1.811,1.617-2.726c0.08-0.139,0.16-0.279,0.24-0.419
	c0.563-0.979,1.118-1.963,1.661-2.952c0.043-0.078,0.085-0.157,0.128-0.235c0.581-1.063,1.151-2.133,1.71-3.209
	c0.004-0.009,0.01-0.018,0.014-0.027c4.464-8.606,8.191-17.617,11.156-26.973c10.546-32.275,11.475-68.672,2.726-105.747
	c-5.212-22.367-13.895-44.569-25.84-65.851c-0.016-0.028-0.03-0.057-0.046-0.084c3.009-31.995,28.005-57.28,60.255-60.539
	c29.975-3.023,57.421,14.2,68.694,40.546c0.052,0.122,0.099,0.245,0.151,0.368c0.356,0.845,0.696,1.7,1.018,2.563
	c0.089,0.239,0.172,0.48,0.259,0.72c0.271,0.754,0.532,1.515,0.777,2.282c0.096,0.301,0.188,0.604,0.28,0.906
	c0.218,0.718,0.424,1.441,0.62,2.169c0.09,0.336,0.178,0.672,0.264,1.009c0.178,0.712,0.342,1.43,0.498,2.151
	c0.075,0.348,0.155,0.696,0.224,1.045c0.151,0.753,0.281,1.514,0.407,2.278c0.051,0.314,0.111,0.625,0.158,0.94
	c0.16,1.073,0.301,2.153,0.411,3.244c0,0.001,0,0.003,0,0.004c0.104,1.028,0.175,2.055,0.233,3.081
	c0.013,0.238,0.028,0.477,0.038,0.715c0.043,0.94,0.064,1.88,0.068,2.818c0.001,0.331-0.004,0.663-0.009,0.993
	c-0.007,0.706-0.028,1.411-0.058,2.114c-0.022,0.517-0.051,1.034-0.085,1.549c-0.041,0.617-0.089,1.232-0.146,1.846
	c-0.043,0.45-0.085,0.9-0.137,1.349c-0.09,0.784-0.192,1.568-0.311,2.349c-0.065,0.432-0.139,0.861-0.212,1.292
	c-0.11,0.64-0.228,1.28-0.356,1.917c-0.088,0.435-0.178,0.868-0.274,1.3c-0.169,0.761-0.35,1.52-0.546,2.276
	c-0.069,0.27-0.138,0.542-0.212,0.812c-0.255,0.938-0.531,1.872-0.828,2.803c-3.899,12.23-11.281,23.274-21.56,31.692
	c-1.997,1.636-3.085,4.133-2.921,6.71c0.313,4.927,0.655,12.92,0.508,23.016c-0.066,4.426,3.47,8.067,7.896,8.131
	c0.041,0,0.08,0.001,0.12,0.001c4.371,0,7.947-3.511,8.011-7.897c0.121-8.222-0.068-15.139-0.314-20.264
	c9.973-9.018,17.471-20.141,22.095-32.371c19.604-6.857,53.317-19.6,53.677-19.736c2.895-1.094,4.9-3.758,5.152-6.843
	C512.226,102.224,510.679,99.27,508.002,97.72z M316.47,403.521l-27.83,19.813v-33.336c9.734-1.608,19.014-3.894,27.83-6.863
	V403.521z M298.459,111.855c0.137,0.265,0.28,0.527,0.416,0.792c0.268,0.526,0.52,1.055,0.784,1.581
	c1.428,2.852,2.799,5.725,4.108,8.615c0.199,0.437,0.406,0.873,0.601,1.311c0.028,0.067,0.055,0.135,0.084,0.201
	c0.519,1.167,1.024,2.348,1.526,3.526c0.295,0.695,0.59,1.388,0.878,2.083c0.444,1.07,0.882,2.136,1.301,3.19
	c0.689,1.734,1.366,3.47,2.008,5.207l0.337,0.924c22.165,60.743,16.17,123.454-17.642,168.769c-0.056,0.075-0.113,0.149-0.17,0.223
	c-1.221,1.63-2.475,3.24-3.768,4.824c-0.887,1.086-1.79,2.154-2.703,3.212c-0.274,0.317-0.554,0.628-0.829,0.944
	c-0.66,0.751-1.325,1.497-1.999,2.234c-0.307,0.337-0.617,0.67-0.926,1.003c-0.69,0.743-1.389,1.477-2.093,2.203
	c-0.271,0.28-0.541,0.562-0.814,0.84c-0.931,0.946-1.87,1.88-2.824,2.8c-0.043,0.041-0.083,0.082-0.126,0.123
	c-1.053,1.012-2.12,2.007-3.2,2.987c-0.126,0.114-0.254,0.225-0.38,0.339c-0.92,0.829-1.851,1.647-2.791,2.452
	c-0.25,0.215-0.502,0.426-0.753,0.639c-0.846,0.716-1.7,1.422-2.562,2.12c-0.263,0.213-0.526,0.426-0.791,0.638
	c-0.935,0.747-1.881,1.481-2.834,2.206c-0.172,0.131-0.342,0.265-0.515,0.395c-1.146,0.863-2.304,1.711-3.474,2.542
	c-0.122,0.087-0.246,0.169-0.368,0.255c-0.992,0.7-1.992,1.386-3.001,2.063c-0.43,0.287-0.862,0.57-1.295,0.853
	c-0.697,0.457-1.397,0.909-2.101,1.355c-0.547,0.346-1.095,0.689-1.648,1.029c-0.566,0.349-1.138,0.691-1.71,1.033
	c-0.658,0.393-1.315,0.789-1.981,1.172c-0.306,0.177-0.617,0.347-0.923,0.523c-11.254,6.399-23.463,11.492-36.489,15.21
	c-0.012,0.003-0.024,0.004-0.035,0.007c-3.005,0.86-6.04,1.637-9.097,2.346c-0.868,0.2-1.74,0.391-2.615,0.579
	c-0.401,0.087-0.801,0.172-1.202,0.256c-3.726,0.775-7.508,1.447-11.348,2.007c-0.212,0.031-0.418,0.073-0.623,0.12
	c-0.197,0.028-0.395,0.052-0.592,0.08c-1.29,0.181-2.583,0.347-3.88,0.502c-0.926,0.109-1.857,0.209-2.789,0.307
	c-0.583,0.062-1.167,0.123-1.751,0.18c-1.39,0.131-2.785,0.251-4.186,0.355c-0.142,0.011-0.284,0.022-0.426,0.032
	c-4.947,0.355-9.967,0.535-15.053,0.534c-3.378,0-6.765-0.088-10.159-0.246c-0.782-0.037-1.563-0.074-2.348-0.12
	c-0.621-0.035-1.242-0.076-1.864-0.116c-5.118-0.344-10.279-0.86-15.479-1.565c-0.035-0.005-0.071-0.004-0.106-0.009
	c-10.859-1.477-21.745-3.742-32.603-6.799L298.459,111.855z M457.835,113.204c0.708-5.445,0.868-10.962,0.48-16.515
	c-0.004-0.058-0.005-0.115-0.01-0.173c-0.059-0.823-0.129-1.647-0.213-2.472c-0.136-1.342-0.309-2.677-0.508-4.004
	c-0.06-0.401-0.135-0.796-0.201-1.195c-0.115-0.705-0.221-1.413-0.355-2.114l28.278,16.369
	C477.101,106.159,466.923,109.925,457.835,113.204z"/>
<circle cx="401.119" cy="80.378" r="10.233"/>
<g>
</g>
<g>
</g>
<g>
</g>
<g>
</g>
<g>
</g>
<g>
</g>
<g>
</g>
<g>
</g>
<g>
</g>
<g>
</g>
<g>
</g>
<g>
</g>
<g>
</g>
<g>
</g>
<g>
</g>
</svg>
