<svg width="90" height="90" viewBox="0 0 90 90" fill="none" xmlns="http://www.w3.org/2000/svg">
<g clip-path="url(#clip0_4_42)">
<path d="M76.264 0.111V33.537L67.589 26.254L58.914 33.537V0H14.317C14.195 0 14.081 0.032 13.959 0.036V5.555H11.096V0.394C4.74701 1.861 0.00201416 7.519 0.00201416 14.315V75.155C0.00201416 81.948 4.74801 87.609 11.096 89.08V83.92H13.959V89.439C14.081 89.443 14.195 89.475 14.317 89.475H75.157C83.063 89.475 89.472 83.065 89.472 75.16V14.32C89.473 6.786 83.643 0.684 76.264 0.111ZM13.959 76.791H11.096V69.669H13.959V76.791ZM13.959 62.548H11.096V55.426H13.959V62.548ZM13.959 48.297H11.096V41.175H13.959V48.297ZM13.959 34.053H11.096V26.931H13.959V34.053ZM13.959 19.805H11.096V12.683H13.959V19.805Z" fill="#93A089"/>
</g>
<defs>
<clipPath id="clip0_4_42">
<rect width="89.475" height="89.475" fill="white"/>
</clipPath>
</defs>
</svg>
