<?xml version="1.0" encoding="iso-8859-1"?>
<!-- Generator: Adobe Illustrator 19.0.0, SVG Export Plug-In . SVG Version: 6.00 Build 0)  -->
<svg version="1.1" id="Layer_1" xmlns="http://www.w3.org/2000/svg" xmlns:xlink="http://www.w3.org/1999/xlink" x="0px" y="0px"
	 viewBox="0 0 512 512" style="enable-background:new 0 0 512 512;" xml:space="preserve">
<rect x="92.507" y="10.199" style="fill:#74C1F2;" width="326.986" height="408.733"/>
<g>
	<rect x="92.507" y="418.932" style="fill:#EDB2D8;" width="326.986" height="82.869"/>
	<rect x="179.853" y="65.071" style="fill:#EDB2D8;" width="152.295" height="72.792"/>
</g>
<path d="M82.307,501.801c0,5.632,4.567,10.199,10.199,10.199h326.988c5.632,0,10.199-4.567,10.199-10.199V10.199
	C429.693,4.567,425.126,0,419.494,0H92.506c-5.632,0-10.199,4.567-10.199,10.199V501.801z M102.705,20.398h306.59v388.337h-306.59
	V20.398z M409.295,491.602h-306.59v-6.478h221.603c5.632,0,10.199-4.567,10.199-10.199c0-5.632-4.567-10.199-10.199-10.199H102.705
	v-6.478h171.123c5.632,0,10.199-4.567,10.199-10.199c0-5.632-4.567-10.199-10.199-10.199H102.705v-8.717h306.59V491.602z"/>
<path d="M332.147,54.872H179.853c-5.632,0-10.199,4.567-10.199,10.199v72.788c0,5.632,4.567,10.199,10.199,10.199h152.295
	c5.632,0,10.199-4.567,10.199-10.199V65.071C342.346,59.438,337.78,54.872,332.147,54.872z M321.948,127.659H190.052V75.27h131.896
	V127.659z"/>
<path d="M364.623,485.124h11.198c5.632,0,10.199-4.567,10.199-10.199c0-5.632-4.567-10.199-10.199-10.199h-11.198
	c-5.632,0-10.199,4.567-10.199,10.199C354.423,480.557,358.991,485.124,364.623,485.124z"/>
<g>
</g>
<g>
</g>
<g>
</g>
<g>
</g>
<g>
</g>
<g>
</g>
<g>
</g>
<g>
</g>
<g>
</g>
<g>
</g>
<g>
</g>
<g>
</g>
<g>
</g>
<g>
</g>
<g>
</g>
</svg>
