<?xml version="1.0" encoding="iso-8859-1"?>
<!-- Generator: Adobe Illustrator 19.0.0, SVG Export Plug-In . SVG Version: 6.00 Build 0)  -->
<svg version="1.1" id="Layer_1" xmlns="http://www.w3.org/2000/svg" xmlns:xlink="http://www.w3.org/1999/xlink" x="0px" y="0px"
	 viewBox="0 0 512 512" style="enable-background:new 0 0 512 512;" xml:space="preserve">
<path style="fill:#FBB429;" d="M483.869,57.459H28.131c-9.87,0-17.871,8.001-17.871,17.871v276.179
	c0,9.869,8.001,17.87,17.871,17.87h297.756c5.846,0,11.553,1.78,16.363,5.103l115.881,80.06v-69.943
	c0-8.405,6.814-15.219,15.219-15.219h10.517c9.87,0,17.871-8.001,17.871-17.871V75.33C501.739,65.46,493.738,57.459,483.869,57.459z
	"/>
<g>
	<path style="fill:#4D4D4D;" d="M458.133,464.802c-2.047,0-4.086-0.613-5.834-1.818l-115.881-80.059
		c-3.109-2.15-6.75-3.284-10.53-3.284H28.131C12.619,379.639,0,367.02,0,351.508V75.33c0-15.512,12.619-28.131,28.131-28.131
		h455.737C499.381,47.198,512,59.818,512,75.33v276.178c0,15.512-12.619,28.131-28.131,28.131h-10.517
		c-2.734,0-4.959,2.224-4.959,4.959v69.943c0,3.815-2.117,7.315-5.493,9.086C461.401,464.413,459.765,464.802,458.133,464.802z
		 M28.131,67.719c-4.197,0-7.61,3.414-7.61,7.61v276.178c0,4.197,3.414,7.61,7.61,7.61h297.756c7.967,0,15.642,2.394,22.196,6.923
		l99.789,68.939v-50.383c0-14.05,11.43-25.48,25.48-25.48h10.517c4.197,0,7.61-3.414,7.61-7.61V75.33c0-4.197-3.414-7.61-7.61-7.61
		H28.131z"/>
	<path style="fill:#4D4D4D;" d="M398.621,160.064h-6.156c-5.666,0-10.261-4.595-10.261-10.261s4.595-10.261,10.261-10.261h6.156
		c5.666,0,10.261,4.595,10.261,10.261S404.287,160.064,398.621,160.064z"/>
	<path style="fill:#4D4D4D;" d="M352.449,160.064h-239.07c-5.666,0-10.261-4.595-10.261-10.261s4.595-10.261,10.261-10.261h239.07
		c5.666,0,10.26,4.595,10.26,10.261S358.115,160.064,352.449,160.064z"/>
	<path style="fill:#4D4D4D;" d="M398.621,223.679H113.379c-5.666,0-10.261-4.595-10.261-10.261s4.595-10.261,10.261-10.261h285.242
		c5.666,0,10.261,4.595,10.261,10.261S404.287,223.679,398.621,223.679z"/>
	<path style="fill:#4D4D4D;" d="M398.621,288.321H113.379c-5.666,0-10.261-4.595-10.261-10.261s4.595-10.261,10.261-10.261h285.242
		c5.666,0,10.261,4.595,10.261,10.261S404.287,288.321,398.621,288.321z"/>
</g>
<g>
</g>
<g>
</g>
<g>
</g>
<g>
</g>
<g>
</g>
<g>
</g>
<g>
</g>
<g>
</g>
<g>
</g>
<g>
</g>
<g>
</g>
<g>
</g>
<g>
</g>
<g>
</g>
<g>
</g>
</svg>
