<svg width="256" height="256" viewBox="0 0 256 256" fill="none" xmlns="http://www.w3.org/2000/svg">
<g opacity="0.2">
<path d="M208 40H48C43.5817 40 40 43.5817 40 48V208C40 212.418 43.5817 216 48 216H208C212.418 216 216 212.418 216 208V48C216 43.5817 212.418 40 208 40Z" fill="#24FF00"/>
</g>
<path d="M149.457 126.548C152.8 129.891 155.451 133.859 157.26 138.227C159.069 142.594 160.001 147.275 160.001 152.002C160.001 156.729 159.07 161.41 157.261 165.778C155.452 170.145 152.8 174.113 149.457 177.456C146.115 180.799 142.147 183.45 137.779 185.259C133.412 187.068 128.731 188 124.004 188C119.277 188 114.596 187.069 110.228 185.26C105.861 183.451 101.892 180.799 98.5498 177.457C97.0495 175.956 96.2067 173.921 96.2068 171.799C96.2069 169.678 97.0499 167.643 98.5503 166.143C100.051 164.642 102.086 163.8 104.207 163.8C106.329 163.8 108.364 164.643 109.864 166.143C112.19 168.468 115.053 170.183 118.2 171.138C121.346 172.092 124.68 172.255 127.905 171.613C131.13 170.972 134.147 169.545 136.689 167.458C139.231 165.372 141.219 162.691 142.477 159.653C143.735 156.615 144.225 153.314 143.903 150.041C143.58 146.769 142.456 143.626 140.629 140.892C138.802 138.158 136.33 135.916 133.43 134.366C130.53 132.816 127.292 132.005 124.004 132.004C122.541 132.004 121.105 131.603 119.854 130.844C118.603 130.085 117.584 128.998 116.908 127.7C116.232 126.402 115.925 124.943 116.021 123.483C116.116 122.023 116.61 120.617 117.449 119.418L136.633 92H104C101.878 92 99.8434 91.1571 98.3431 89.6569C96.8429 88.1566 96 86.1217 96 84C96 81.8783 96.8429 79.8434 98.3431 78.3431C99.8434 76.8429 101.878 76 104 76H151.994C153.457 75.9999 154.893 76.4012 156.144 77.1602C157.395 77.9192 158.414 79.0068 159.09 80.3047C159.766 81.6026 160.073 83.061 159.977 84.5212C159.882 85.9814 159.388 87.3875 158.549 88.5864L137.533 118.623C141.999 120.438 146.054 123.134 149.457 126.548V126.548ZM224 48V208C223.995 212.242 222.308 216.309 219.308 219.308C216.309 222.308 212.242 223.995 208 224H48C43.758 223.995 39.6912 222.308 36.6917 219.308C33.6921 216.309 32.0049 212.242 32 208V48C32.0049 43.758 33.6921 39.6912 36.6917 36.6917C39.6912 33.6921 43.758 32.0049 48 32H208C212.242 32.0049 216.309 33.6921 219.308 36.6917C222.308 39.6912 223.995 43.758 224 48V48ZM208.01 208L208 48H48V208H208L208.01 208Z" fill="black"/>
</svg>
