<svg width="256" height="256" viewBox="0 0 256 256" fill="none" xmlns="http://www.w3.org/2000/svg">
<g opacity="0.2">
<path d="M208 40H48C43.5817 40 40 43.5817 40 48V208C40 212.418 43.5817 216 48 216H208C212.418 216 216 212.418 216 208V48C216 43.5817 212.418 40 208 40Z" fill="#00C2FF"/>
</g>
<path d="M118.64 88L114.542 113.211C117.59 112.405 120.729 111.999 123.882 112.002C129.798 112.016 135.619 113.487 140.831 116.286C146.043 119.085 150.485 123.125 153.764 128.049C157.042 132.974 159.057 138.63 159.629 144.518C160.202 150.407 159.314 156.345 157.045 161.809C154.776 167.272 151.195 172.092 146.62 175.842C142.045 179.593 136.616 182.158 130.813 183.31C125.01 184.463 119.013 184.168 113.352 182.451C107.69 180.734 102.539 177.648 98.3545 173.467C97.6091 172.726 97.0171 171.845 96.6123 170.875C96.2076 169.905 95.9979 168.864 95.9954 167.813C95.9928 166.762 96.1975 165.721 96.5976 164.749C96.9977 163.777 97.5854 162.893 98.3272 162.149C99.069 161.404 99.9503 160.813 100.921 160.409C101.891 160.005 102.932 159.796 103.983 159.794C105.034 159.793 106.075 159.998 107.047 160.399C108.018 160.8 108.901 161.388 109.645 162.131C113.43 165.89 118.548 168 123.883 168C129.218 168 134.336 165.89 138.12 162.13C139.984 160.279 141.462 158.077 142.471 155.652C143.481 153.227 144 150.626 144 148C144 145.373 143.48 142.772 142.471 140.348C141.462 137.923 139.983 135.721 138.119 133.87C134.334 130.111 129.216 128.002 123.882 128.002C118.547 128.002 113.429 130.112 109.644 133.871C108.446 135.064 106.901 135.847 105.231 136.107C103.56 136.367 101.85 136.092 100.346 135.319C98.8417 134.547 97.6209 133.318 96.8587 131.809C96.0965 130.3 95.8321 128.588 96.1035 126.919L103.938 78.7168C104.243 76.8422 105.205 75.1371 106.652 73.9065C108.098 72.6759 109.936 72.0001 111.835 72H152C154.122 72 156.157 72.8429 157.657 74.3431C159.157 75.8434 160 77.8783 160 80C160 82.1217 159.157 84.1566 157.657 85.6569C156.157 87.1571 154.122 88 152 88H118.64ZM224 48V208C223.995 212.242 222.308 216.309 219.308 219.308C216.309 222.308 212.242 223.995 208 224H48C43.758 223.995 39.6912 222.308 36.6917 219.308C33.6921 216.309 32.0049 212.242 32 208V48C32.0049 43.758 33.6921 39.6912 36.6917 36.6917C39.6912 33.6921 43.758 32.0049 48 32H208C212.242 32.0049 216.309 33.6921 219.308 36.6917C222.308 39.6912 223.995 43.758 224 48V48ZM208.01 208L208 48H48V208H208.01Z" fill="black"/>
</svg>
