<?xml version="1.0" encoding="iso-8859-1"?>
<!-- Generator: Adobe Illustrator 19.0.0, SVG Export Plug-In . SVG Version: 6.00 Build 0)  -->
<svg version="1.1" id="Layer_1" xmlns="http://www.w3.org/2000/svg" xmlns:xlink="http://www.w3.org/1999/xlink" x="0px" y="0px"
	 viewBox="0 0 490.861 490.861" style="enable-background:new 0 0 490.861 490.861;" xml:space="preserve">
<g>
	<path style="fill:#71D1D1;" d="M391.155,467.852c0,4.229,3.441,7.669,7.67,7.669s7.67-3.44,7.67-7.669v-84.367h-15.34
		L391.155,467.852L391.155,467.852z"/>
	<path style="fill:#FBB03B;" d="M329.798,53.687c4.236,0,7.67,3.434,7.67,7.67s-3.434,7.67-7.67,7.67h-23.874v30.679h23.874
		c4.236,0,7.67,3.434,7.67,7.67s-3.434,7.67-7.67,7.67h-23.874v30.679h23.874c4.236,0,7.67,3.434,7.67,7.67
		c0,4.236-3.434,7.67-7.67,7.67h-23.874v30.679h23.874c4.236,0,7.67,3.434,7.67,7.67s-3.434,7.67-7.67,7.67h-23.874v30.679h23.874
		c4.236,0,7.67,3.434,7.67,7.67c0,4.236-3.434,7.67-7.67,7.67h-23.874v30.679h23.874c4.236,0,7.67,3.434,7.67,7.67
		s-3.434,7.67-7.67,7.67h-23.874v30.679h23.874c4.236,0,7.67,3.434,7.67,7.67c0,4.236-3.434,7.67-7.67,7.67h-23.874v30.678h23.874
		c4.236,0,7.67,3.434,7.67,7.67c0,4.236-3.434,7.67-7.67,7.67h-23.874v30.679h23.874c4.236,0,7.67,3.434,7.67,7.67
		c0,4.236-3.434,7.67-7.67,7.67h-23.874v38.348h71.206c-0.851-2.4-1.314-4.982-1.314-7.669V15.34h-69.892v38.348L329.798,53.687
		L329.798,53.687z"/>
	<rect x="229.361" y="115.046" style="fill:#FCC062;" width="76.563" height="30.678"/>
	<rect x="229.361" y="437.173" style="fill:#FCC062;" width="76.563" height="38.348"/>
	<path style="fill:#FCC062;" d="M268.44,53.688c4.236,0,7.67,3.434,7.67,7.67s-3.434,7.67-7.67,7.67h-39.079v30.679h76.563v-30.68
		h-6.805c-4.236,0-7.67-3.434-7.67-7.67s3.434-7.67,7.67-7.67h6.805V15.34h-76.563v38.348H268.44z"/>
	<path style="fill:#FCC062;" d="M305.924,207.082h-45.153c-4.236,0-7.67-3.434-7.67-7.67c0-4.236,3.434-7.67,7.67-7.67h45.153
		v-30.679h-76.563v30.679h0.73c4.236,0,7.67,3.434,7.67,7.67c0,4.236-3.434,7.67-7.67,7.67h-0.73v30.679h76.563V207.082z"/>
	<rect x="229.361" y="253.1" style="fill:#FCC062;" width="76.563" height="30.679"/>
	<path style="fill:#FCC062;" d="M305.924,391.154h-45.153c-4.236,0-7.67-3.434-7.67-7.67c0-4.236,3.434-7.67,7.67-7.67h45.153
		v-30.678h-6.805c-4.236,0-7.67-3.434-7.67-7.67c0-4.236,3.434-7.67,7.67-7.67h6.805v-30.679h-76.563v30.679h39.079
		c4.236,0,7.67,3.434,7.67,7.67c0,4.236-3.434,7.67-7.67,7.67h-39.079v30.678h0.73c4.236,0,7.67,3.434,7.67,7.67
		c0,4.236-3.434,7.67-7.67,7.67h-0.73v30.679h76.563V391.154z"/>
	<path style="fill:#FDD089;" d="M229.361,437.172h-22.278c-4.236,0-7.67-3.434-7.67-7.67c0-4.236,3.434-7.67,7.67-7.67h22.278
		v-30.679h-98.976c-4.236,0-7.67-3.434-7.67-7.67c0-4.236,3.434-7.67,7.67-7.67h98.976v-30.678h-98.976
		c-4.236,0-7.67-3.434-7.67-7.67c0-4.236,3.434-7.67,7.67-7.67h98.976v-30.679h-98.976c-4.236,0-7.67-3.434-7.67-7.67
		s3.434-7.67,7.67-7.67h98.976V253.1h-98.976c-4.236,0-7.67-3.434-7.67-7.67c0-4.236,3.434-7.67,7.67-7.67h98.976v-30.679h-98.976
		c-4.236,0-7.67-3.434-7.67-7.67s3.434-7.67,7.67-7.67h98.976v-30.679h-45.288c-4.236,0-7.67-3.434-7.67-7.67
		c0-4.236,3.434-7.67,7.67-7.67h45.288v-30.679h-98.976c-4.236,0-7.67-3.434-7.67-7.67s3.434-7.67,7.67-7.67h98.976V69.027h-98.976
		c-4.236,0-7.67-3.434-7.67-7.67s3.434-7.67,7.67-7.67h98.976V15.34H84.368v452.512c0,4.229,3.441,7.669,7.67,7.669h137.323V437.172
		z M130.385,145.724h23.009c4.236,0,7.67,3.434,7.67,7.67c0,4.236-3.434,7.67-7.67,7.67h-23.009c-4.236,0-7.67-3.434-7.67-7.67
		S126.15,145.724,130.385,145.724z M176.404,437.172h-46.018c-4.236,0-7.67-3.434-7.67-7.67c0-4.236,3.434-7.67,7.67-7.67h46.018
		c4.236,0,7.67,3.434,7.67,7.67C184.073,433.738,180.64,437.172,176.404,437.172z"/>
	<path d="M414.165,368.145h-23.009V7.67c0-4.236-3.434-7.67-7.67-7.67H76.698c-4.236,0-7.67,3.434-7.67,7.67v460.182
		c0,12.687,10.322,23.009,23.009,23.009h306.788c12.688,0,23.009-10.322,23.009-23.009v-92.037
		C421.834,371.579,418.401,368.145,414.165,368.145z M406.495,467.852c0,4.229-3.441,7.669-7.67,7.669s-7.67-3.44-7.67-7.669
		v-84.367h15.34L406.495,467.852L406.495,467.852z M84.368,467.852V15.34h144.993h76.563h69.892v452.512
		c0,2.688,0.464,5.27,1.314,7.669h-71.206h-76.563H92.037C87.808,475.521,84.368,472.081,84.368,467.852z"/>
	<path d="M276.11,61.358c0-4.236-3.434-7.67-7.67-7.67h-39.079h-98.976c-4.236,0-7.67,3.434-7.67,7.67s3.434,7.67,7.67,7.67h98.976
		h39.079C272.676,69.027,276.11,65.593,276.11,61.358z"/>
	<path d="M329.798,115.046c4.236,0,7.67-3.434,7.67-7.67s-3.434-7.67-7.67-7.67h-23.874h-76.563h-98.976
		c-4.236,0-7.67,3.434-7.67,7.67s3.434,7.67,7.67,7.67h98.976h76.563H329.798z"/>
	<path d="M329.798,161.064c4.236,0,7.67-3.434,7.67-7.67c0-4.236-3.434-7.67-7.67-7.67h-23.874h-76.563h-45.288
		c-4.236,0-7.67,3.434-7.67,7.67c0,4.236,3.434,7.67,7.67,7.67h45.288h76.563H329.798z"/>
	<path d="M237.76,199.412c0-4.236-3.434-7.67-7.67-7.67h-0.73h-98.976c-4.236,0-7.67,3.434-7.67,7.67c0,4.236,3.434,7.67,7.67,7.67
		h98.976h0.73C234.327,207.082,237.76,203.648,237.76,199.412z"/>
	<path d="M329.798,253.1c4.236,0,7.67-3.434,7.67-7.67c0-4.236-3.434-7.67-7.67-7.67h-23.874h-76.563h-98.976
		c-4.236,0-7.67,3.434-7.67,7.67c0,4.236,3.434,7.67,7.67,7.67h98.976h76.563H329.798z"/>
	<path d="M329.798,299.118c4.236,0,7.67-3.434,7.67-7.67s-3.434-7.67-7.67-7.67h-23.874h-76.563h-98.976
		c-4.236,0-7.67,3.434-7.67,7.67s3.434,7.67,7.67,7.67h98.976h76.563H329.798z"/>
	<path d="M276.11,337.466c0-4.236-3.434-7.67-7.67-7.67h-39.079h-98.976c-4.236,0-7.67,3.434-7.67,7.67
		c0,4.236,3.434,7.67,7.67,7.67h98.976h39.079C272.676,345.136,276.11,341.702,276.11,337.466z"/>
	<path d="M237.76,383.485c0-4.236-3.434-7.67-7.67-7.67h-0.73h-98.976c-4.236,0-7.67,3.434-7.67,7.67c0,4.236,3.434,7.67,7.67,7.67
		h98.976h0.73C234.327,391.154,237.76,387.72,237.76,383.485z"/>
	<path d="M329.798,437.172c4.236,0,7.67-3.434,7.67-7.67c0-4.236-3.434-7.67-7.67-7.67h-23.874h-76.563h-22.278
		c-4.236,0-7.67,3.434-7.67,7.67c0,4.236,3.434,7.67,7.67,7.67h22.278h76.563H329.798z"/>
	<path d="M337.467,61.357c0-4.236-3.434-7.67-7.67-7.67h-23.874h-6.805c-4.236,0-7.67,3.434-7.67,7.67s3.434,7.67,7.67,7.67h6.805
		h23.874C334.034,69.027,337.467,65.593,337.467,61.357z"/>
	<path d="M130.385,161.064h23.009c4.236,0,7.67-3.434,7.67-7.67c0-4.236-3.434-7.67-7.67-7.67h-23.009
		c-4.236,0-7.67,3.434-7.67,7.67C122.715,157.63,126.15,161.064,130.385,161.064z"/>
	<path d="M253.101,199.412c0,4.236,3.434,7.67,7.67,7.67h45.153h23.874c4.236,0,7.67-3.434,7.67-7.67c0-4.236-3.434-7.67-7.67-7.67
		h-23.874h-45.153C256.535,191.742,253.101,195.176,253.101,199.412z"/>
	<path d="M253.101,383.485c0,4.236,3.434,7.67,7.67,7.67h45.153h23.874c4.236,0,7.67-3.434,7.67-7.67c0-4.236-3.434-7.67-7.67-7.67
		h-23.874h-45.153C256.535,375.815,253.101,379.249,253.101,383.485z"/>
	<path d="M291.449,337.466c0,4.236,3.434,7.67,7.67,7.67h6.805h23.874c4.236,0,7.67-3.434,7.67-7.67c0-4.236-3.434-7.67-7.67-7.67
		h-23.874h-6.805C294.883,329.797,291.449,333.231,291.449,337.466z"/>
	<path d="M176.404,421.833h-46.018c-4.236,0-7.67,3.434-7.67,7.67c0,4.236,3.434,7.67,7.67,7.67h46.018
		c4.236,0,7.67-3.434,7.67-7.67C184.073,425.267,180.64,421.833,176.404,421.833z"/>
</g>
<g>
</g>
<g>
</g>
<g>
</g>
<g>
</g>
<g>
</g>
<g>
</g>
<g>
</g>
<g>
</g>
<g>
</g>
<g>
</g>
<g>
</g>
<g>
</g>
<g>
</g>
<g>
</g>
<g>
</g>
</svg>
