<svg width="512" height="512" viewBox="0 0 512 512" fill="none" xmlns="http://www.w3.org/2000/svg">
<g clip-path="url(#clip0_14_103)">
<path d="M255.999 481.082C689.239 226.102 462.465 -57.083 255.999 56.868C49.534 -57.082 -177.24 226.103 255.999 481.082Z" fill="#B1B1B1"/>
<path d="M255.999 415.158C181.457 367.576 125.944 316.279 94.463 265.665C68.516 223.948 59.547 184.48 68.526 151.524C79.182 112.41 115.135 87.137 160.122 87.137C182.61 87.137 206.37 93.69 228.834 106.088L255.999 121.081L283.164 106.088C305.628 93.69 329.388 87.137 351.877 87.137C396.853 87.137 432.798 112.41 443.455 151.524C452.433 184.482 443.466 223.953 417.521 265.67C386.045 316.286 330.535 367.579 255.999 415.158Z" fill="white"/>
<g opacity="0.1">
<path d="M144.215 275.078C117.914 222.07 111.709 173.715 126.271 135.237C133.896 115.09 147.119 98.748 164.141 87.211C162.797 87.165 161.456 87.138 160.121 87.138C115.134 87.138 79.181 112.411 68.526 151.525C59.546 184.481 68.516 223.95 94.462 265.666C124.825 314.483 177.55 363.934 248.135 410.074C201.249 364.644 166.019 319.023 144.215 275.078Z" fill="black"/>
</g>
<path d="M385.086 25.045C342.778 17.006 298.268 24.491 256.061 46.688C211.918 23.522 163.871 16.338 120.249 26.478C76.742 36.589 41.166 62.53 20.077 99.522C3.528 128.553 -17.763 190.088 25.598 276.035C43.524 311.568 70.611 346.967 106.106 381.251C144.84 418.663 193.759 454.865 251.505 488.85C252.912 489.678 254.486 490.092 256.062 490.092C257.638 490.092 259.213 489.679 260.619 488.85C294.804 468.732 326.198 447.627 353.929 426.122C357.85 423.08 358.564 417.436 355.524 413.515C352.483 409.594 346.837 408.881 342.918 411.92C317.023 432.001 287.826 451.748 256.063 470.664C151.152 408.178 77.063 338.151 41.642 267.94C12.308 209.795 10.194 153.144 35.689 108.422C54.269 75.832 85.744 52.946 124.318 43.981C165.045 34.516 210.292 41.893 251.722 64.759C254.425 66.251 257.703 66.251 260.406 64.759C300.186 42.804 342.144 35.178 381.733 42.699C418.546 49.693 449.95 69.511 470.164 98.501C493.934 132.591 500.193 176.882 487.791 223.214C473.062 278.239 432.485 335.706 370.449 389.401C366.697 392.649 366.287 398.323 369.535 402.075C372.782 405.827 378.457 406.236 382.209 402.989C446.976 346.931 489.489 286.373 505.151 227.86C518.947 176.323 511.757 126.733 484.906 88.223C461.99 55.357 426.541 32.921 385.086 25.045Z" fill="black"/>
<path d="M93.9 123.345C97.226 119.662 96.937 113.98 93.255 110.654C89.576 107.329 83.893 107.616 80.564 111.3C70.757 122.157 63.812 134.905 59.921 149.189C50.267 184.616 59.596 226.544 86.898 270.438C118.902 321.893 175.727 374.565 251.229 422.759C252.703 423.701 254.384 424.17 256.063 424.17C257.743 424.17 259.424 423.699 260.897 422.759C336.398 374.564 393.218 321.895 425.216 270.443C452.514 226.548 461.84 184.619 452.188 149.189C440.435 106.052 401.086 78.179 351.941 78.179C327.936 78.179 302.674 85.118 278.885 98.248L256.062 110.845L233.239 98.248C209.451 85.118 184.19 78.179 160.185 78.179C143.14 78.179 127.153 81.504 112.664 88.063C108.144 90.109 106.137 95.434 108.183 99.954C110.232 104.474 115.552 106.481 120.075 104.435C132.219 98.938 145.713 96.15 160.185 96.15C181.16 96.15 203.418 102.317 224.555 113.982L251.72 128.975C254.423 130.467 257.701 130.467 260.404 128.975L287.569 113.982C308.707 102.316 330.966 96.15 351.942 96.15C392.746 96.15 425.29 118.824 434.849 153.913C443.155 184.396 434.546 221.409 409.955 260.951C380.041 309.05 326.899 358.608 256.063 404.501C185.224 358.607 132.077 309.049 102.157 260.946C77.564 221.406 68.955 184.394 77.261 153.912C80.404 142.374 86.003 132.089 93.9 123.345Z" fill="black"/>
</g>
<defs>
<clipPath id="clip0_14_103">
<rect width="512.001" height="512.001" fill="white"/>
</clipPath>
</defs>
</svg>
