<svg width="331" height="331" viewBox="0 0 331 331" fill="none" xmlns="http://www.w3.org/2000/svg">
<g clip-path="url(#clip0_4_25)">
<path d="M324.442 129.811L283.121 96.134V42.275C283.121 36.21 278.186 31.275 272.121 31.275H246.121C240.056 31.275 235.121 36.21 235.121 42.275V57.012L179.908 12.013C175.914 8.759 170.65 6.966 165.086 6.966C159.544 6.966 154.305 8.748 150.333 11.985L5.8 129.81C-0.766997 135.161 -0.372998 139.822 0.446002 142.124C1.263 144.421 3.894 148.275 12.33 148.275H32.121V303.222C32.121 314.28 41.093 323.275 52.121 323.275H114.621C125.556 323.275 134.121 314.466 134.121 303.222V239.681C134.121 234.235 139.126 229.276 144.621 229.276H186.621C191.859 229.276 196.121 233.944 196.121 239.681V303.222C196.121 314.092 205.509 323.275 216.621 323.275H278.121C289.149 323.275 298.121 314.279 298.121 303.222V148.275H317.912C326.348 148.275 328.978 144.421 329.796 142.124C330.615 139.822 331.009 135.161 324.442 129.811Z" fill="#93A089"/>
</g>
<defs>
<clipPath id="clip0_4_25">
<rect width="330.242" height="330.242" fill="white"/>
</clipPath>
</defs>
</svg>
