<svg width="512" height="512" viewBox="0 0 512 512" fill="none" xmlns="http://www.w3.org/2000/svg">
<g clip-path="url(#clip0_5_61)">
<path d="M255.999 503.671C392.785 503.671 503.67 392.785 503.67 255.999C503.67 119.213 392.785 8.32904 256 8.32904C119.215 8.32904 8.32904 119.215 8.32904 256C8.32804 392.785 119.214 503.671 255.999 503.671Z" fill="#41CB35"/>
<g opacity="0.1">
<path d="M448.144 255.999C448.144 383.396 351.95 488.31 228.237 502.113C237.352 503.13 246.613 503.671 256 503.671C392.785 503.671 503.67 392.785 503.67 255.999C503.67 119.213 392.785 8.32904 256 8.32904C246.613 8.32904 237.352 8.87002 228.237 9.88702C351.951 23.689 448.144 128.602 448.144 255.999Z" fill="black"/>
</g>
<path d="M125.199 214.538H223.017V157.202L392.597 255.999L223.017 354.798V297.462L125.199 297.462V214.538Z" fill="white"/>
<path d="M256 0C324.381 0 388.667 26.629 437.019 74.98C485.37 123.333 511.999 187.62 511.999 256.001C511.999 324.821 485.065 389.405 436.16 437.858C432.893 441.095 427.619 441.071 424.382 437.804C421.145 434.536 421.169 429.263 424.438 426.025C470.16 380.724 495.342 320.342 495.342 256.001C495.342 192.07 470.446 131.966 425.24 86.761C380.034 41.555 319.93 16.659 256 16.659C198.895 16.659 143.597 37.109 100.293 74.242C96.802 77.237 91.543 76.833 88.549 73.341C85.555 69.849 85.958 64.591 89.45 61.596C135.77 21.875 194.919 0 256 0ZM71.094 82.921C73.066 82.921 75.046 83.617 76.634 85.033C80.068 88.095 80.369 93.36 77.308 96.792C38.196 140.658 16.658 197.199 16.658 255.999C16.658 319.93 41.554 380.034 86.76 425.239C131.965 470.446 192.069 495.342 256 495.342C308.458 495.342 358.263 478.68 400.032 447.157C403.703 444.385 408.926 445.116 411.697 448.787C414.469 452.458 413.738 457.681 410.067 460.452C365.383 494.175 312.108 512 256 512C187.619 512 123.333 485.371 74.981 437.02C26.629 388.668 0.0010376 324.381 0.0010376 256.001C0.0010376 193.106 23.041 132.628 64.876 85.707C66.52 83.861 68.802 82.921 71.094 82.921ZM223.017 148.873C224.466 148.873 225.914 149.251 227.209 150.006L396.788 248.805C399.349 250.298 400.925 253.038 400.925 256.001C400.925 258.964 399.35 261.706 396.788 263.197L227.209 361.995C224.633 363.496 221.451 363.504 218.866 362.019C216.281 360.533 214.687 357.779 214.687 354.798V305.791L125.198 305.791C120.598 305.791 116.869 302.062 116.869 297.462L116.869 214.539C116.869 209.939 120.598 206.21 125.198 206.21H214.687V157.203C214.687 154.221 216.281 151.467 218.866 149.982C220.152 149.241 221.585 148.873 223.017 148.873ZM376.052 256.001L231.346 171.694V214.539C231.346 219.139 227.617 222.868 223.017 222.868H133.528L133.528 289.133L223.017 289.133C227.617 289.133 231.346 292.862 231.346 297.462V340.307L376.052 256.001Z" fill="black"/>
</g>
<defs>
<clipPath id="clip0_5_61">
<rect width="512" height="512" fill="white" transform="translate(512 512) rotate(-180)"/>
</clipPath>
</defs>
</svg>
