<svg width="512" height="512" viewBox="0 0 512 512" fill="none" xmlns="http://www.w3.org/2000/svg">
<g clip-path="url(#clip0_11_60)">
<path d="M255.488 7.60699C217.684 7.60699 172.119 21.943 172.119 21.943C75.94 56.203 7.09201 148.063 7.09201 256.003C7.09201 393.189 118.302 504.399 255.488 504.399C392.674 504.399 503.884 393.189 503.884 256.003C503.884 118.817 392.673 7.60699 255.488 7.60699ZM255.488 456.227C144.908 456.227 55.266 366.584 55.266 256.005C55.266 145.426 144.908 55.781 255.488 55.781C366.068 55.781 455.71 145.423 455.71 256.003C455.71 366.583 366.068 456.227 255.488 456.227Z" fill="#0F6308"/>
<path d="M255.493 471.385C374.447 471.385 470.878 374.954 470.878 256C470.878 137.046 374.447 40.615 255.493 40.615C136.539 40.615 40.108 137.046 40.108 256C40.108 374.954 136.539 471.385 255.493 471.385Z" fill="#41CB35"/>
<path opacity="0.22" d="M399.542 53.626C428.514 94.255 445.56 143.976 445.56 197.681C445.56 334.867 334.35 446.077 197.164 446.077C143.46 446.077 93.738 429.031 53.108 400.059C98.146 463.215 172.006 504.4 255.487 504.4C392.673 504.4 503.883 393.19 503.883 256.004C503.884 172.523 462.7 98.663 399.542 53.626Z" fill="#22561D"/>
<path d="M214.449 180.525V144.525L368.332 250.198L214.449 355.87V247.269V180.525Z" fill="white"/>
<path d="M210.908 362.599C212.02 363.185 213.236 363.474 214.449 363.474C215.959 363.474 217.463 363.025 218.754 362.139L372.636 256.465C374.701 255.047 375.935 252.703 375.935 250.196C375.935 247.69 374.701 245.346 372.636 243.927L218.754 138.256C216.426 136.657 213.405 136.48 210.908 137.796C208.41 139.111 206.845 141.701 206.845 144.525V180.525C206.845 184.724 210.25 188.129 214.449 188.129C218.648 188.129 222.053 184.724 222.053 180.525V158.97L354.898 250.196L222.053 341.423V247.267C222.053 243.068 218.648 239.663 214.449 239.663C210.25 239.663 206.845 243.068 206.845 247.267V355.87C206.846 358.694 208.409 361.284 210.908 362.599Z" fill="black"/>
<path d="M98.657 413.343C140.685 455.371 196.564 478.516 256 478.516C315.436 478.516 371.316 455.371 413.343 413.343C455.37 371.315 478.516 315.437 478.516 256C478.516 196.563 455.371 140.684 413.343 98.657C371.316 56.628 315.437 33.483 256 33.483C196.563 33.483 140.684 56.628 98.657 98.657C56.628 140.684 33.483 196.563 33.483 256C33.483 315.437 56.628 371.316 98.657 413.343ZM256 48.691C370.311 48.691 463.308 141.689 463.308 256C463.308 370.311 370.311 463.308 256 463.308C141.689 463.308 48.691 370.311 48.691 256C48.691 141.689 141.689 48.691 256 48.691Z" fill="black"/>
<path d="M437.019 74.981C388.668 26.629 324.38 0 256 0C213.788 0 171.946 10.493 134.998 30.347C131.298 32.334 129.91 36.944 131.899 40.644C133.885 44.343 138.495 45.732 142.196 43.743C176.939 25.075 216.291 15.208 256 15.208C388.773 15.208 496.792 123.227 496.792 256C496.792 388.773 388.773 496.792 256 496.792C123.227 496.792 15.208 388.773 15.208 256C15.208 190.069 41.339 128.535 88.788 82.734C91.809 79.818 91.894 75.003 88.978 71.982C86.061 68.962 81.247 68.875 78.226 71.792C53.751 95.417 34.507 123.152 21.03 154.228C7.076 186.403 0 220.645 0 256C0 324.38 26.629 388.668 74.981 437.019C123.333 485.37 187.62 512 256 512C324.38 512 388.668 485.371 437.019 437.019C485.37 388.667 512 324.38 512 256C512 187.62 485.371 123.332 437.019 74.981Z" fill="black"/>
</g>
<defs>
<clipPath id="clip0_11_60">
<rect width="512" height="512" fill="white"/>
</clipPath>
</defs>
</svg>
