<svg width="512" height="512" viewBox="0 0 512 512" fill="none" xmlns="http://www.w3.org/2000/svg">
<g clip-path="url(#clip0_5_17)">
<path d="M256.002 503.613C392.754 503.613 503.614 392.753 503.614 256.001C503.614 119.249 392.754 8.38901 256.002 8.38901C119.25 8.38901 8.39001 119.249 8.39001 256.001C8.39001 392.753 119.25 503.613 256.002 503.613Z" fill="#41CB35"/>
<path opacity="0.1" d="M64.319 255.998C64.319 128.704 160.382 23.864 283.964 9.97C274.783 8.938 265.456 8.388 255.999 8.388C119.249 8.388 8.38898 119.247 8.38898 255.998C8.38898 392.749 119.247 503.608 255.999 503.608C265.456 503.608 274.782 503.059 283.964 502.026C160.382 488.134 64.319 383.293 64.319 255.998Z" fill="black"/>
<path d="M404.963 211.407H300.592V107.035H211.408V211.407H107.037V300.591H211.408V404.963H300.592V300.591H404.963V211.407Z" fill="white"/>
<path d="M255.999 511.998C187.618 511.998 123.331 485.369 74.98 437.019C26.629 388.666 0 324.378 0 255.998C0 219.248 7.624 183.77 22.662 150.548C37.187 118.458 57.831 90.136 84.021 66.37C87.453 63.256 92.759 63.513 95.871 66.945C98.985 70.376 98.728 75.682 95.296 78.795C45.398 124.077 16.778 188.663 16.778 255.997C16.778 319.896 41.661 379.969 86.845 425.152C132.028 470.334 192.101 495.217 256 495.217C310.064 495.217 361.073 477.623 403.511 444.333C407.158 441.473 412.432 442.113 415.29 445.756C418.15 449.401 417.511 454.676 413.867 457.535C368.445 493.165 313.855 511.998 255.999 511.998Z" fill="black"/>
<path d="M116.4 59.876C113.723 59.876 111.094 58.597 109.469 56.223C106.865 52.416 107.821 47.226 111.602 44.597C115.321 41.957 120.489 42.775 123.209 46.464C125.957 50.195 125.161 55.446 121.432 58.195C121.354 58.253 121.212 58.354 121.13 58.408C119.681 59.401 118.032 59.876 116.4 59.876Z" fill="black"/>
<path d="M433.487 437.015C431.378 437.015 429.269 436.225 427.638 434.639C424.317 431.407 424.243 426.096 427.475 422.776C471.162 377.868 495.22 318.638 495.22 255.999C495.22 192.101 470.337 132.028 425.153 86.845C379.969 41.662 319.897 16.779 255.998 16.779C207.62 16.779 161.01 31.156 121.208 58.354C117.381 60.966 112.163 59.985 109.548 56.16C106.934 52.334 107.916 47.114 111.742 44.5C154.345 15.389 204.228 0 255.998 0C324.378 0 388.666 26.629 437.017 74.981C485.368 123.333 511.998 187.619 511.998 255.999C511.998 323.033 486.25 386.417 439.5 434.475C437.857 436.166 435.673 437.015 433.487 437.015Z" fill="black"/>
<path d="M300.592 413.351H211.408C206.774 413.351 203.019 409.596 203.019 404.962V308.98H107.037C102.403 308.98 98.648 305.225 98.648 300.591V211.407C98.648 206.773 102.403 203.018 107.037 203.018H203.019V107.037C203.019 102.403 206.774 98.648 211.408 98.648H300.592C305.226 98.648 308.981 102.403 308.981 107.037V203.019H404.963C409.597 203.019 413.352 206.774 413.352 211.408V300.592C413.352 305.226 409.597 308.981 404.963 308.981H308.981V404.963C308.982 409.596 305.225 413.351 300.592 413.351ZM219.797 396.572H292.203V300.59C292.203 295.956 295.958 292.201 300.592 292.201H396.574V219.795H300.592C295.958 219.795 292.203 216.04 292.203 211.406V115.424H219.797V211.406C219.797 216.04 216.042 219.795 211.408 219.795H115.426V292.201H211.408C216.042 292.201 219.797 295.956 219.797 300.59V396.572Z" fill="black"/>
</g>
<defs>
<clipPath id="clip0_5_17">
<rect width="511.998" height="511.998" fill="white"/>
</clipPath>
</defs>
</svg>
