<svg width="512" height="512" viewBox="0 0 512 512" fill="none" xmlns="http://www.w3.org/2000/svg">
<g clip-path="url(#clip0_9_30)">
<path d="M503.671 256.001C503.671 119.216 392.785 8.33099 255.999 8.33099C119.213 8.33099 8.32899 119.216 8.32899 256.001C8.32899 392.786 119.215 503.672 256 503.672C392.785 503.672 503.671 392.786 503.671 256.001Z" fill="#41CB35"/>
<path d="M284.504 284.007V313.233C284.504 325.822 275.062 335.265 262.472 335.265C250.782 335.265 240.44 325.823 240.44 313.233V266.472C240.44 266.022 240.89 266.022 240.89 265.572C240.44 265.122 240.44 265.122 240.44 264.672C240.44 252.981 250.782 242.64 262.472 242.64C290.798 242.64 313.729 220.159 313.729 192.282C313.729 163.956 290.798 141.924 262.472 141.924C244.037 141.924 227.85 151.815 219.308 166.653C213.014 177.444 199.524 181.041 188.733 174.747C178.391 168.453 174.795 155.413 181.089 144.622C197.275 116.746 227.85 97.861 262.472 97.861C314.628 97.861 357.343 140.125 357.343 192.282C357.344 236.796 326.32 274.115 284.504 284.007ZM284.504 382.475V390.569C284.504 403.158 275.062 412.601 262.472 412.601C250.782 412.601 240.44 403.159 240.44 390.569V382.475C240.44 370.335 250.782 360.443 262.472 360.443C275.063 360.443 284.504 370.335 284.504 382.475Z" fill="white"/>
<path opacity="0.1" d="M74.96 256.001C74.96 130.516 168.287 26.843 289.316 10.568C278.418 9.102 267.3 8.33 256.001 8.33C119.215 8.33 8.32899 119.216 8.32899 256.001C8.32899 392.786 119.215 503.672 256.001 503.672C267.301 503.672 278.418 502.9 289.317 501.434C168.288 485.16 74.96 381.487 74.96 256.001Z" fill="black"/>
<path d="M412.833 64.146C415.626 60.49 414.926 55.264 411.272 52.471C366.343 18.145 312.651 0.00100708 255.999 0.00100708C187.62 0.00100708 123.332 26.63 74.98 74.981C26.629 123.334 0 187.621 0 256.001C0 324.464 26.686 388.808 75.143 437.179C76.769 438.801 78.898 439.613 81.028 439.613C83.161 439.613 85.296 438.798 86.923 437.169C90.172 433.913 90.168 428.639 86.913 425.39C41.608 380.166 16.659 320.01 16.659 256.002C16.659 192.071 41.555 131.967 86.761 86.761C131.967 41.556 192.071 16.66 256.001 16.66C308.965 16.66 359.161 33.621 401.159 65.709C404.814 68.501 410.04 67.801 412.833 64.146Z" fill="black"/>
<path d="M425.455 75.187C422.198 78.435 422.192 83.709 425.441 86.965C470.517 132.15 495.342 192.181 495.342 256C495.342 319.931 470.446 380.035 425.24 425.24C380.034 470.446 319.93 495.342 256 495.342C203.216 495.342 153.159 478.486 111.24 446.598C107.58 443.813 102.354 444.524 99.568 448.184C96.783 451.845 97.494 457.07 101.154 459.856C145.996 493.969 199.541 512 256 512C324.38 512 388.667 485.371 437.019 437.02C485.371 388.666 512 324.379 512 255.999C512 187.737 485.447 123.528 437.234 75.199C433.986 71.945 428.712 71.936 425.455 75.187Z" fill="black"/>
<path d="M262.474 352.114C246.017 352.114 232.113 366.018 232.113 382.475V390.569C232.113 407.31 245.732 420.93 262.474 420.93C279.783 420.93 292.835 407.878 292.835 390.569V382.475C292.833 365.451 279.498 352.114 262.474 352.114ZM276.175 390.568C276.175 398.507 270.412 404.271 262.472 404.271C254.916 404.271 248.769 398.124 248.769 390.568V382.474C248.769 375.175 255.172 368.771 262.472 368.771C270.283 368.771 276.175 374.662 276.175 382.474V390.568Z" fill="black"/>
<path d="M292.833 290.381C336.042 277.245 365.672 237.805 365.672 192.283C365.672 135.626 319.376 89.533 262.472 89.533C226.063 89.533 192.119 109.039 173.895 140.426C165.436 154.927 170.053 173.128 184.403 181.863C184.447 181.89 184.492 181.916 184.537 181.943C189.283 184.712 194.651 186.175 200.058 186.175C211.02 186.174 220.906 180.446 226.526 170.811C233.827 158.132 247.6 150.255 262.473 150.255C286.546 150.255 305.401 168.716 305.401 192.284C305.401 215.46 286.143 234.313 262.473 234.313C246.299 234.313 232.112 248.5 232.112 264.674C232.112 265.002 232.126 265.316 232.152 265.618C232.124 265.92 232.112 266.207 232.112 266.473V313.234C232.112 329.975 245.731 343.595 262.473 343.595C279.782 343.595 292.834 330.543 292.834 313.234V290.382H292.833V290.381ZM282.588 275.901C278.83 276.789 276.177 280.144 276.177 284.006V313.232C276.177 321.171 270.414 326.935 262.474 326.935C254.918 326.935 248.771 320.788 248.771 313.232V268.379C249.116 267.341 249.221 266.368 249.221 265.572C249.221 264.755 249.101 263.95 248.87 263.18C249.72 256.717 255.931 250.97 262.474 250.97C295.33 250.97 322.06 224.643 322.06 192.283C322.06 176.375 315.838 161.544 304.541 150.521C293.357 139.607 278.417 133.597 262.473 133.597C241.661 133.597 222.355 144.672 212.114 162.458C209.536 166.877 205.029 169.515 200.057 169.517C197.622 169.517 195.183 168.852 192.998 167.594C186.421 163.546 184.394 155.489 188.293 148.806C203.555 122.521 231.979 106.192 262.473 106.192C310.192 106.192 349.015 144.813 349.015 192.284C349.015 232.264 321.699 266.649 282.588 275.901Z" fill="black"/>
</g>
<defs>
<clipPath id="clip0_9_30">
<rect width="512" height="512" fill="white"/>
</clipPath>
</defs>
</svg>
