<svg width="512" height="512" viewBox="0 0 512 512" fill="none" xmlns="http://www.w3.org/2000/svg">
<g clip-path="url(#clip0_12_84)">
<path d="M256.001 8.297C119.198 8.297 8.298 119.198 8.298 256.001C8.298 392.804 119.199 503.704 256.001 503.704C392.803 503.704 503.705 392.803 503.705 256.001C503.703 119.198 392.804 8.297 256.001 8.297Z" fill="#41CB35"/>
<path d="M256.001 426.265C162.117 426.265 85.737 349.886 85.737 256.001C85.737 228.262 92.523 201.182 105.239 176.971L80.91 160.871L184.715 108.4L177 224.456L151.735 207.737C144.765 222.751 141.052 239.194 141.052 255.999C141.052 319.383 192.619 370.95 256.003 370.95C319.387 370.95 370.954 319.383 370.954 255.999C370.954 192.615 319.386 141.049 256.002 141.049V85.736C349.886 85.736 426.266 162.115 426.266 256C426.266 349.885 349.885 426.265 256.001 426.265Z" fill="white"/>
<path d="M256 512C204.306 512 154.486 496.655 111.926 467.625C108.14 465.043 107.165 459.881 109.747 456.095C112.329 452.309 117.488 451.331 121.278 453.916C161.072 481.058 207.658 495.405 256.001 495.405C319.949 495.405 380.069 470.503 425.286 425.285C470.503 380.067 495.407 319.947 495.407 256C495.407 193.086 471.179 133.657 427.185 88.66C423.981 85.383 424.04 80.131 427.317 76.927C430.595 73.723 435.847 73.783 439.049 77.06C486.092 125.177 512 188.726 512 256.001C512 324.381 485.372 388.669 437.019 437.021C388.668 485.372 324.381 512 256 512ZM90.313 448.419C88.334 448.419 86.349 447.715 84.763 446.287C30.895 397.783 0.000999451 328.425 0.000999451 256.001C0.000999451 187.62 26.629 123.333 74.981 74.981C123.333 26.629 187.62 0 256 0C313.663 0 368.113 18.725 413.461 54.149C417.072 56.97 417.712 62.185 414.891 65.796C412.071 69.408 406.855 70.046 403.245 67.226C360.844 34.102 309.925 16.594 256 16.594C192.052 16.594 131.933 41.496 86.715 86.714C41.497 131.932 16.595 192.052 16.595 256C16.595 323.73 45.489 388.592 95.867 433.956C99.272 437.021 99.546 442.269 96.481 445.674C94.842 447.493 92.582 448.419 90.313 448.419ZM256 434.561C157.541 434.561 77.439 354.459 77.439 256C77.439 229.756 83.333 203.584 94.541 179.84L76.331 167.789C73.865 166.157 72.455 163.338 72.626 160.387C72.797 157.437 74.528 154.799 77.166 153.466L180.971 100.995C183.632 99.65 186.809 99.837 189.292 101.481C191.778 103.125 193.189 105.977 192.992 108.951L185.277 225.007C185.081 227.957 183.33 230.579 180.682 231.891C178.031 233.204 174.886 233.006 172.42 231.375L155.564 220.22C151.434 231.712 149.347 243.706 149.347 255.999C149.347 314.807 197.191 362.653 256.001 362.653C314.811 362.653 362.655 314.808 362.655 255.999C362.655 197.19 314.809 149.347 256 149.347C251.417 149.347 247.703 145.632 247.703 141.05V85.736C247.703 81.154 251.417 77.439 256 77.439C354.459 77.439 434.561 157.541 434.561 256C434.561 354.459 354.459 434.561 256 434.561ZM97.398 161.832L109.817 170.051C113.368 172.401 114.564 177.058 112.584 180.828C100.448 203.936 94.033 229.93 94.033 256C94.033 345.308 166.692 417.967 256 417.967C345.308 417.967 417.967 345.309 417.967 256C417.967 169.472 349.77 98.573 264.297 94.243V133.029C328.403 137.311 379.248 190.83 379.248 256C379.248 323.958 323.959 379.248 256 379.248C188.041 379.248 132.752 323.959 132.752 256C132.752 238.031 136.606 220.618 144.207 204.243C145.225 202.051 147.147 200.412 149.474 199.753C151.799 199.095 154.296 199.483 156.312 200.817L169.667 209.654L175.469 122.368L97.398 161.832Z" fill="black"/>
</g>
<defs>
<clipPath id="clip0_12_84">
<rect width="512" height="512" fill="white"/>
</clipPath>
</defs>
</svg>
