<?xml version="1.0" encoding="iso-8859-1"?>
<!-- Generator: Adobe Illustrator 19.0.0, SVG Export Plug-In . SVG Version: 6.00 Build 0)  -->
<svg version="1.1" id="Layer_1" xmlns="http://www.w3.org/2000/svg" xmlns:xlink="http://www.w3.org/1999/xlink" x="0px" y="0px"
	 viewBox="0 0 512 512" style="enable-background:new 0 0 512 512;" xml:space="preserve">
<circle style="fill:#FDDF6D;" cx="256.001" cy="256.001" r="245.994"/>
<path style="fill:#FCC56B;" d="M308.715,465.678c-135.858,0-245.993-110.134-245.993-245.993
	c0-72.584,31.443-137.816,81.444-182.842C64.527,77.562,10.007,160.414,10.007,256c0,135.858,110.134,245.993,245.993,245.993
	c63.274,0,120.962-23.898,164.549-63.149C386.996,455.999,348.987,465.678,308.715,465.678z"/>
<g>
	<path style="fill:#7F184C;" d="M291.792,421.175L291.792,421.175c-54.992,0-99.573-44.581-99.573-99.573l0,0h199.146l0,0
		C391.365,376.594,346.784,421.175,291.792,421.175z"/>
	<path style="fill:#7F184C;" d="M246.294,189.863c-5.527,0-10.007-4.481-10.007-10.007c0-12.908-10.501-23.409-23.409-23.409
		c-12.908,0-23.409,10.502-23.409,23.409c0,5.527-4.481,10.007-10.007,10.007c-5.527,0-10.007-4.481-10.007-10.007
		c0-23.944,19.481-43.424,43.424-43.424s43.424,19.48,43.424,43.424C256.302,185.383,251.821,189.863,246.294,189.863z"/>
	<path style="fill:#7F184C;" d="M415.317,189.863c-5.527,0-10.007-4.481-10.007-10.007c0-12.908-10.501-23.409-23.409-23.409
		c-12.908,0-23.409,10.502-23.409,23.409c0,5.527-4.481,10.007-10.007,10.007s-10.007-4.481-10.007-10.007
		c0-23.944,19.481-43.424,43.424-43.424c23.943,0,43.424,19.48,43.424,43.424C425.324,185.383,420.844,189.863,415.317,189.863z"/>
</g>
<g>
	<path style="fill:#F9A880;" d="M150.288,240.771c-18.268,0-33.078,14.81-33.078,33.078h66.157
		C183.365,255.581,168.556,240.771,150.288,240.771z"/>
	<path style="fill:#F9A880;" d="M438.814,236.339c-18.268,0-33.079,14.81-33.079,33.078h66.157
		C471.893,251.148,457.084,236.339,438.814,236.339z"/>
</g>
<path style="fill:#F2F2F2;" d="M216.514,321.602v15.543c0,6.554,5.313,11.866,11.866,11.866h126.822
	c6.554,0,11.866-5.313,11.866-11.866v-15.543H216.514z"/>
<path style="fill:#FC4C59;" d="M293.883,379.866c-26.916-12.505-56.784-10.688-81.005,2.282c18.2,23.721,46.821,39.029,79.03,39.029
	l0,0c14.194,0,27.683-2.99,39.903-8.342C322.845,398.961,309.99,387.35,293.883,379.866z"/>
<ellipse transform="matrix(0.2723 -0.9622 0.9622 0.2723 143.5045 346.5437)" style="fill:#FCEB88;" cx="300.864" cy="78.396" rx="28.687" ry="51.37"/>
<path d="M467.251,111.359c-28.582-41.669-68.35-73.705-115.002-92.647c-5.12-2.078-10.957,0.387-13.038,5.508
	c-2.079,5.121,0.387,10.957,5.508,13.038c43.005,17.461,79.669,47,106.025,85.423c26.978,39.332,41.24,85.432,41.24,133.319
	c0,130.124-105.862,235.985-235.985,235.985S20.015,386.122,20.015,256S125.876,20.015,256,20.015
	c5.527,0,10.007-4.481,10.007-10.007S261.527,0,256,0C114.84,0,0,114.84,0,256s114.84,256,256,256s256-114.84,256-256
	C512,204.053,496.526,154.037,467.251,111.359z"/>
<path d="M189.468,179.856c0-12.908,10.502-23.409,23.409-23.409s23.409,10.502,23.409,23.409c0,5.527,4.481,10.007,10.007,10.007
	c5.527,0,10.007-4.481,10.007-10.007c0-23.944-19.48-43.424-43.424-43.424s-43.424,19.48-43.424,43.424
	c0,5.527,4.481,10.007,10.007,10.007C184.988,189.863,189.468,185.383,189.468,179.856z"/>
<path d="M358.491,179.856c0-12.908,10.502-23.409,23.409-23.409c12.907,0,23.409,10.502,23.409,23.409
	c0,5.527,4.481,10.007,10.007,10.007s10.007-4.481,10.007-10.007c0-23.944-19.48-43.424-43.424-43.424
	c-23.944,0-43.424,19.48-43.424,43.424c0,5.527,4.481,10.007,10.007,10.007S358.491,185.383,358.491,179.856z"/>
<path d="M182.211,321.602c0,60.423,49.157,109.58,109.58,109.58s109.58-49.157,109.58-109.58c0-5.527-4.481-10.007-10.007-10.007
	H192.218C186.692,311.594,182.211,316.075,182.211,321.602z M380.802,331.609c-4.992,44.695-43.006,79.558-89.011,79.558
	s-84.019-34.863-89.011-79.558L380.802,331.609L380.802,331.609z"/>
<circle cx="310.868" cy="17.167" r="10.007"/>
<g>
</g>
<g>
</g>
<g>
</g>
<g>
</g>
<g>
</g>
<g>
</g>
<g>
</g>
<g>
</g>
<g>
</g>
<g>
</g>
<g>
</g>
<g>
</g>
<g>
</g>
<g>
</g>
<g>
</g>
</svg>
