<svg width="310" height="310" viewBox="0 0 310 310" fill="none" xmlns="http://www.w3.org/2000/svg">
<g clip-path="url(#clip0_4_100)">
<path d="M38.658 0H202.888L289.937 86.711V289.938C289.937 300.617 281.278 309.267 270.608 309.267H38.658C27.988 309.267 19.329 300.617 19.329 289.938V19.329C19.329 8.65 27.989 0 38.658 0Z" fill="#93A089"/>
<path d="M289.658 86.981H222.286C211.616 86.981 202.957 78.322 202.957 67.652V0.192993L289.658 86.981Z" fill="#93A089"/>
<path d="M57.988 125.64V144.969H251.28V125.64H57.988ZM57.988 183.637H251.28V164.308H57.988V183.637ZM57.988 222.286H251.28V202.957H57.988V222.286ZM57.988 260.944H251.28V241.624H57.988V260.944ZM164.298 86.981H57.988V106.31H164.299L164.298 86.981ZM164.298 48.323H57.988V67.652H164.299L164.298 48.323Z" fill="#93A089"/>
</g>
<defs>
<clipPath id="clip0_4_100">
<rect width="309.267" height="309.267" fill="white"/>
</clipPath>
</defs>
</svg>
